<svg width="49" height="48" viewBox="0 0 49 48" fill="none" xmlns="http://www.w3.org/2000/svg">
<g clip-path="url(#clip0_448_700)">
<path d="M6.98182 12.1968C8.23516 11.3208 10.1245 11.4888 11.2498 12.4181L9.95916 10.5421C8.92049 9.0608 9.29249 7.45813 10.7752 6.41813C12.2578 5.38213 16.4592 8.16746 16.4592 8.16746C15.4112 6.67146 15.6072 4.77546 17.1032 3.72613C18.5992 2.6808 20.6632 3.04213 21.7112 4.5408L35.6045 24.1675L33.8338 41.3341L19.0565 35.9448L6.16716 16.8341C5.10982 15.3288 5.47516 13.2528 6.98182 12.1968Z" fill="white"/>
<path d="M4.09459 23.1148C4.09459 23.1148 2.58526 20.9148 4.78659 19.4068C6.98526 17.8988 8.49326 20.0974 8.49326 20.0974L15.4946 30.3081C15.7359 29.9054 15.9999 29.5081 16.2946 29.1161L6.57726 14.9468C6.57726 14.9468 5.06926 12.7481 7.26926 11.2401C9.46793 9.73211 10.9759 11.9308 10.9759 11.9308L20.1159 25.2601C20.4559 24.9828 20.8039 24.7041 21.1626 24.4308L10.5666 8.97611C10.5666 8.97611 9.05859 6.77744 11.2586 5.26944C13.4573 3.76144 14.9653 5.96011 14.9653 5.96011L25.5613 21.4121C25.9506 21.1734 26.3359 20.9668 26.7226 20.7481L16.8186 6.30544C16.8186 6.30544 15.3106 4.10677 17.5093 2.59877C19.7079 1.09077 21.2159 3.28944 21.2159 3.28944L31.6879 18.5614L33.2799 20.8841C26.6826 25.4094 26.0546 33.9228 29.8239 39.4201C30.5773 40.5201 31.6773 39.7668 31.6773 39.7668C27.1533 33.1681 28.5346 25.7534 35.1333 21.2294L33.1879 11.4934C33.1879 11.4934 32.4613 8.92811 35.0253 8.20011C37.5906 7.47344 38.3186 10.0388 38.3186 10.0388L40.5653 16.7108C41.4559 19.3561 42.4039 21.9921 43.6586 24.4854C47.2013 31.5254 45.0853 40.2748 38.4053 44.8574C31.1186 49.8534 21.1573 47.9961 16.1599 40.7108L4.09459 23.1148Z" fill="#FFDC5D"/>
<path d="M16.4987 42.724C11.1654 42.724 5.77604 37.3346 5.77604 32.0013C5.77604 31.264 5.23604 30.668 4.49871 30.668C3.76138 30.668 3.10938 31.264 3.10938 32.0013C3.10938 40.0013 8.49871 45.3906 16.4987 45.3906C17.236 45.3906 17.832 44.7386 17.832 44.0013C17.832 43.264 17.236 42.724 16.4987 42.724Z" fill="#5DADEC"/>
<path d="M9.83333 45.3346C5.83333 45.3346 3.16667 42.668 3.16667 38.668C3.16667 37.9306 2.57067 37.3346 1.83333 37.3346C1.096 37.3346 0.5 37.9306 0.5 38.668C0.5 44.0013 4.5 48.0013 9.83333 48.0013C10.5707 48.0013 11.1667 47.4053 11.1667 46.668C11.1667 45.9306 10.5707 45.3346 9.83333 45.3346ZM32.5 2.66797C31.764 2.66797 31.1667 3.2653 31.1667 4.0013C31.1667 4.7373 31.764 5.33464 32.5 5.33464C37.8333 5.33464 43.1667 10.12 43.1667 16.0013C43.1667 16.7373 43.764 17.3346 44.5 17.3346C45.236 17.3346 45.8333 16.7373 45.8333 16.0013C45.8333 8.6493 40.5 2.66797 32.5 2.66797Z" fill="#5DADEC"/>
<path d="M39.1654 0.0566406C38.4294 0.0566406 37.832 0.597974 37.832 1.33397C37.832 2.06997 38.4294 2.72331 39.1654 2.72331C43.1654 2.72331 45.776 5.68997 45.776 9.33397C45.776 10.07 46.428 10.6673 47.1654 10.6673C47.9027 10.6673 48.4427 10.07 48.4427 9.33397C48.4427 4.21797 44.4987 0.0566406 39.1654 0.0566406Z" fill="#5DADEC"/>
</g>
<defs>
<clipPath id="clip0_448_700">
<rect width="48" height="48" fill="white" transform="translate(0.5)"/>
</clipPath>
</defs>
</svg>
