<svg width="25" height="30" viewBox="0 0 25 30" fill="none" xmlns="http://www.w3.org/2000/svg">
<path d="M12.5046 6.94604C9.39917 6.94604 6.89429 9.45093 6.89429 12.5564C6.89429 15.6619 9.39917 18.1667 12.5046 18.1667C15.6101 18.1667 18.115 15.6619 18.115 12.5564C18.115 9.45093 15.6101 6.94604 12.5046 6.94604ZM12.5046 16.2039C10.4978 16.2039 8.85718 14.5681 8.85718 12.5564C8.85718 10.5447 10.4929 8.90894 12.5046 8.90894C14.5164 8.90894 16.1521 10.5447 16.1521 12.5564C16.1521 14.5681 14.5115 16.2039 12.5046 16.2039ZM19.6531 6.71655C19.6531 7.44409 19.0671 8.02515 18.3445 8.02515C17.6169 8.02515 17.0359 7.43921 17.0359 6.71655C17.0359 5.9939 17.6218 5.40796 18.3445 5.40796C19.0671 5.40796 19.6531 5.9939 19.6531 6.71655ZM23.3689 8.04468C23.2859 6.29175 22.8855 4.73901 21.6013 3.45972C20.322 2.18042 18.7693 1.78003 17.0164 1.69214C15.2097 1.5896 9.79468 1.5896 7.98804 1.69214C6.23999 1.77515 4.68726 2.17554 3.40308 3.45483C2.1189 4.73413 1.72339 6.28687 1.6355 8.03979C1.53296 9.84644 1.53296 15.2615 1.6355 17.0681C1.71851 18.821 2.1189 20.3738 3.40308 21.6531C4.68726 22.9324 6.23511 23.3328 7.98804 23.4207C9.79468 23.5232 15.2097 23.5232 17.0164 23.4207C18.7693 23.3376 20.322 22.9373 21.6013 21.6531C22.8806 20.3738 23.281 18.821 23.3689 17.0681C23.4714 15.2615 23.4714 9.85132 23.3689 8.04468ZM21.0349 19.0066C20.6541 19.9636 19.9167 20.7009 18.9548 21.0867C17.5144 21.658 14.0964 21.5261 12.5046 21.5261C10.9128 21.5261 7.48999 21.6531 6.05444 21.0867C5.09741 20.7058 4.36011 19.9685 3.97437 19.0066C3.40308 17.5662 3.53491 14.1482 3.53491 12.5564C3.53491 10.9646 3.40796 7.54175 3.97437 6.1062C4.35522 5.14917 5.09253 4.41186 6.05444 4.02612C7.49487 3.45483 10.9128 3.58667 12.5046 3.58667C14.0964 3.58667 17.5193 3.45972 18.9548 4.02612C19.9119 4.40698 20.6492 5.14429 21.0349 6.1062C21.6062 7.54663 21.4744 10.9646 21.4744 12.5564C21.4744 14.1482 21.6062 17.571 21.0349 19.0066Z" fill="white"/>
</svg>
