<svg width="25" height="30" viewBox="0 0 25 30" fill="none" xmlns="http://www.w3.org/2000/svg">
<path d="M23.8564 6.83433C23.5838 5.80786 22.7805 4.99944 21.7607 4.72509C19.9122 4.22656 12.4998 4.22656 12.4998 4.22656C12.4998 4.22656 5.08749 4.22656 3.23892 4.72509C2.21909 4.99948 1.41587 5.80786 1.14326 6.83433C0.647949 8.69488 0.647949 12.5767 0.647949 12.5767C0.647949 12.5767 0.647949 16.4586 1.14326 18.3191C1.41587 19.3456 2.21909 20.1204 3.23892 20.3947C5.08749 20.8932 12.4998 20.8932 12.4998 20.8932C12.4998 20.8932 19.9121 20.8932 21.7607 20.3947C22.7805 20.1204 23.5838 19.3456 23.8564 18.3191C24.3517 16.4586 24.3517 12.5767 24.3517 12.5767C24.3517 12.5767 24.3517 8.69488 23.8564 6.83433ZM10.0756 16.1012V9.0523L16.2708 12.5768L10.0756 16.1012Z" fill="white"/>
</svg>
