<svg width="25" height="30" viewBox="0 0 25 30" fill="none" xmlns="http://www.w3.org/2000/svg">
<path d="M6.45898 21.9351H1.92383V7.33057H6.45898V21.9351ZM4.18896 5.33838C2.73877 5.33838 1.5625 4.13721 1.5625 2.68701C1.5625 1.99043 1.83922 1.32238 2.33177 0.829821C2.82433 0.337263 3.49238 0.0605469 4.18896 0.0605469C4.88555 0.0605469 5.5536 0.337263 6.04616 0.829821C6.53871 1.32238 6.81543 1.99043 6.81543 2.68701C6.81543 4.13721 5.63867 5.33838 4.18896 5.33838ZM23.4326 21.9351H18.9072V14.8257C18.9072 13.1313 18.873 10.9585 16.5493 10.9585C14.1914 10.9585 13.8301 12.7993 13.8301 14.7036V21.9351H9.29981V7.33057H13.6494V9.32275H13.7129C14.3184 8.17529 15.7974 6.96436 18.0039 6.96436C22.5938 6.96436 23.4375 9.98682 23.4375 13.9126V21.9351H23.4326Z" fill="white"/>
</svg>
