<svg width="17" height="14" viewBox="0 0 17 14" fill="none" xmlns="http://www.w3.org/2000/svg">
<path d="M9.16522 0.492188C9.02029 0.191406 8.71404 0 8.37772 0C8.04139 0 7.73787 0.191406 7.59021 0.492188L5.83201 4.10977L1.90545 4.68945C1.57732 4.73867 1.30389 4.96836 1.20272 5.28281C1.10154 5.59727 1.18357 5.94453 1.41873 6.17695L4.26795 8.99609L3.59529 12.9801C3.54061 13.3082 3.67732 13.6418 3.94803 13.8359C4.21873 14.0301 4.57693 14.0547 4.87225 13.8988L8.38045 12.0258L11.8887 13.8988C12.184 14.0547 12.5422 14.0328 12.8129 13.8359C13.0836 13.6391 13.2203 13.3082 13.1656 12.9801L12.4902 8.99609L15.3394 6.17695C15.5746 5.94453 15.6594 5.59727 15.5554 5.28281C15.4515 4.96836 15.1808 4.73867 14.8527 4.68945L10.9234 4.10977L9.16522 0.492188Z" fill="#FBBD07"/>
</svg>
