<svg width="17" height="14" viewBox="0 0 17 14" fill="none" xmlns="http://www.w3.org/2000/svg">
<path d="M9.41522 0.492188C9.27029 0.191406 8.96404 0 8.62772 0C8.29139 0 7.98787 0.191406 7.84021 0.492188L6.08201 4.10977L2.15545 4.68945C1.82732 4.73867 1.55389 4.96836 1.45272 5.28281C1.35154 5.59727 1.43357 5.94453 1.66873 6.17695L4.51795 8.99609L3.84529 12.9801C3.79061 13.3082 3.92732 13.6418 4.19803 13.8359C4.46873 14.0301 4.82693 14.0547 5.12225 13.8988L8.63045 12.0258L12.1387 13.8988C12.434 14.0547 12.7922 14.0328 13.0629 13.8359C13.3336 13.6391 13.4703 13.3082 13.4156 12.9801L12.7402 8.99609L15.5894 6.17695C15.8246 5.94453 15.9094 5.59727 15.8054 5.28281C15.7015 4.96836 15.4308 4.73867 15.1027 4.68945L11.1734 4.10977L9.41522 0.492188Z" fill="#FBBD07"/>
</svg>
