<svg width="16" height="14" viewBox="0 0 16 14" fill="none" xmlns="http://www.w3.org/2000/svg">
<path d="M8.91522 0.492188C8.77029 0.191406 8.46404 0 8.12772 0C7.79139 0 7.48787 0.191406 7.34021 0.492188L5.58201 4.10977L1.65545 4.68945C1.32732 4.73867 1.05389 4.96836 0.952715 5.28281C0.851543 5.59727 0.933575 5.94453 1.16873 6.17695L4.01795 8.99609L3.34529 12.9801C3.29061 13.3082 3.42732 13.6418 3.69803 13.8359C3.96873 14.0301 4.32693 14.0547 4.62225 13.8988L8.13045 12.0258L11.6387 13.8988C11.934 14.0547 12.2922 14.0328 12.5629 13.8359C12.8336 13.6391 12.9703 13.3082 12.9156 12.9801L12.2402 8.99609L15.0894 6.17695C15.3246 5.94453 15.4094 5.59727 15.3054 5.28281C15.2015 4.96836 14.9308 4.73867 14.6027 4.68945L10.6734 4.10977L8.91522 0.492188Z" fill="#FBBD07"/>
</svg>
